# xmcd
#
# Track frame offsets:
# 150
# 20526
# 37698
# 54758
# 72782
# 87384
# 103540
# 119019
# 136408
# 154730
# 172431
# 191057
# 208433
# 225919
# 244380
#
# Disc length: 3457 seconds
#
#
# Revision: 2
# Processed by: cddbd v1.5.2PL0 Copyright (c) Steve Scherf et al.
# Submitted via: FreeRIP 2.951 
#
DISCID=d20d7f0f
DTITLE=Avant - Director
DYEAR=2006
DGENRE=R&B
TTITLE0=So Many Ways
TTITLE1=This Is Your Night
TTITLE2=You Know What (ft Lil Wayne)
TTITLE3=4 Minutes
TTITLE4=Stickwitu (Urban Remix w/ Pussycat Dolls)
TTITLE5=With You
TTITLE6=Exclusive (ft Lloyd Banks)
TTITLE7=Right Place, Wrong Time
TTITLE8=Grown Ass Man
TTITLE9=Director
TTITLE10=Lie About Us (ft Nicole Scherzinger)
TTITLE11=Imagination
TTITLE12=Mr. Dream
TTITLE13=Now You Got Someone
TTITLE14=GPSA (Ghetto Public Service Annoucement) ft Jermaine Dupri
EXTD=
EXTT0=
EXTT1=
EXTT2=
EXTT3=
EXTT4=
EXTT5=
EXTT6=
EXTT7=
EXTT8=
EXTT9=
EXTT10=
EXTT11=
EXTT12=
EXTT13=
EXTT14=Ghetto Public Service Annoucement
PLAYORDER=
